
<svg xmlns="http://www.w3.org/2000/svg" version="1.1" xmlns:xlink="http://www.w3.org/1999/xlink" preserveAspectRatio="none" x="0px" y="0px" width="280px" height="60px" viewBox="0 0 280 60">
<defs/>

<g id="___1">
<g transform="matrix( 1.5, 0, 0, 1.5, -81.25,-155.55) ">
<g>
<g>
<path fill="#FFFFFF" stroke="none" d="
M 71.7 103.7
Q 71.45 103.7 71.2 103.85 71 103.95 70.85 104.2
L 56.45 128.4
Q 56.45 128.45 56.4 128.5
L 56.4 128.6
Q 56.3 128.75 56.35 128.95
L 56.35 135.6
Q 55.85 135.85 55.45 136.25
L 55.45 136.3
Q 54.15 137.55 54.15 139.35 54.15 141.15 55.45 142.4
L 55.45 142.45
Q 56.7 143.65 58.45 143.7
L 93.2 143.7
Q 93.6 143.7 93.85 143.45 94.15 143.15 94.15 142.75 94.15 142.35 93.85 142.1 93.6 141.8 93.2 141.8
L 62.25 141.8
Q 63 140.75 63 139.35 63 139.2 63 139.05
L 68.1 135.45
Q 68.2 135.4 68.25 135.35 68.35 135.25 68.45 135.1
L 80.75 114.4 80.75 114.35 82.8 110.95
Q 82.9 110.7 82.95 110.5 82.95 110.25 82.85 110.05 79.8 103.55 71.7 103.7
M 72.25 105.6
Q 78.3 105.7 80.85 110.4
L 79.95 112
Q 77.05 107.8 71.1 107.5
L 72.25 105.6
M 70 109.4
Q 76.25 109.3 78.8 113.85
L 67.05 133.7
Q 61.5 133.25 58.45 128.85
L 70 109.4
M 58.25 135.9
L 58.25 131.7
Q 61 134.55 64.95 135.3
L 61.7 137.65
Q 59.35 137.35 58.25 135.9
M 60.3 141.1
Q 59.65 141.75 58.65 141.8
L 58.5 141.8
Q 57.5 141.75 56.8 141.1 56.1 140.35 56.1 139.35 56.1 138.35 56.8 137.6 56.9 137.5 57 137.45 58.4 139.05 61.05 139.5 61 140.4 60.35 141.05
L 60.3 141.1
M 64.2 126.55
Q 64.4 126.2 64.3 125.8 64.2 125.45 63.85 125.25 63.5 125.05 63.1 125.15 62.75 125.25 62.55 125.6
L 61.75 126.9
Q 61.55 127.25 61.65 127.65 61.75 128 62.1 128.2 62.45 128.4 62.85 128.3 63.2 128.2 63.4 127.85
L 64.2 126.55
M 70.5 112.2
L 64.35 122.55
Q 64.15 122.9 64.25 123.25 64.35 123.65 64.7 123.85 65.05 124.05 65.4 123.95 65.8 123.85 66 123.5
L 72.15 113.15
Q 72.35 112.85 72.25 112.45 72.15 112.05 71.8 111.85 71.45 111.65 71.05 111.75 70.7 111.85 70.5 112.2 Z"/>
</g>
</g>
</g>

<g transform="matrix( 0.707916259765625, 0, 0, 0.7085418701171875, -88.1,-140.05) ">
<g>
<g>
<path fill="#FFFFFF" stroke="none" d="
M 265.85 197.7
L 228.25 197.7
Q 226.25 197.7 224.9 199.05 223.5 200.45 223.5 202.4
L 223.5 221.05
Q 223.1 232.9 228.95 238.7 234.45 244.85 246.1 244.75
L 246.15 244.75
Q 246.7 244.75 247.3 244.75 252.95 244.8 257.05 248.85 261.15 253 261.15 258.85 261.15 264.7 257.05 268.8 252.9 272.95 247.05 272.95
L 218.8 272.95
Q 216.85 272.95 215.5 274.35 214.1 275.7 214.1 277.65 214.1 279.6 215.5 281 216.85 282.35 218.8 282.35
L 247.05 282.35
Q 256.8 282.35 263.65 275.45
L 263.7 275.45
Q 270.6 268.6 270.6 258.85 270.6 249.1 263.7 242.2 256.8 235.3 247.05 235.3 246.95 235.3 246.85 235.3 246.45 235.35 246.1 235.35
L 246.05 235.35
Q 239.15 235.4 235.8 232.2 232.65 228.55 232.95 221.35 232.95 221.25 232.95 221.2
L 232.95 207.1 265.85 207.1
Q 267.8 207.1 269.2 205.7 270.6 204.35 270.6 202.4 270.6 200.45 269.2 199.05 267.8 197.7 265.85 197.7
M 324.85 275.45
Q 331.75 268.6 331.75 258.85 331.75 249.1 324.85 242.2 318.15 235.5 308.85 235.3 308.75 235.3 308.7 235.3
L 308.45 235.3
Q 308.2 235.3 308 235.3
L 305.75 235.3
Q 305.65 235.3 305.6 235.3
L 284.7 235.3 284.7 221.7
Q 287.6 208.2 299 207.1
L 317.65 207.1
Q 319.6 207.1 321 205.7 322.35 204.35 322.35 202.4 322.35 200.45 321 199.05 319.6 197.7 317.65 197.7
L 298.8 197.7
Q 298.65 197.7 298.5 197.7 279.7 198.7 275.4 220.3 275.3 220.75 275.3 221.2
L 275.3 258.85
Q 275.3 259 275.3 259.15 277 283.05 298.95 282.35
L 308.2 282.35
Q 317.95 282.35 324.85 275.45
M 305.45 244.75
Q 306.35 244.75 307.25 244.75 307.85 244.75 308.45 244.75
L 308.6 244.75
Q 314.2 244.85 318.2 248.85 322.35 253 322.35 258.85 322.35 264.7 318.2 268.8 314.05 272.95 308.2 272.95
L 298.8 272.95
Q 298.75 272.95 298.7 272.95 285.8 273.05 284.7 258.7
L 284.7 244.75 305.45 244.75
M 369.4 216.5
Q 367.45 216.5 366.1 217.9
L 345.85 238.05 345.85 202.4
Q 345.85 200.45 344.5 199.05 343.1 197.7 341.15 197.7 339.2 197.7 337.85 199.05 336.45 200.45 336.45 202.4
L 336.45 277.65
Q 336.45 279.6 337.85 281 339.2 282.35 341.15 282.35 343.1 282.35 344.5 281 345.85 279.6 345.85 277.65
L 345.85 260.8 366.1 281
Q 367.45 282.35 369.4 282.35 371.35 282.35 372.75 281 374.1 279.6 374.1 277.65 374.1 275.7 372.75 274.35
L 347.8 249.45 372.75 224.55
Q 374.1 223.15 374.1 221.2 374.1 219.25 372.75 217.9 371.35 216.5 369.4 216.5
M 391.45 216.75
Q 389.6 217.35 388.7 219.1
L 369.9 256.75
Q 369 258.5 369.65 260.3 370.25 262.15 372 263.05 373.75 263.9 375.6 263.3 377.4 262.7 378.3 260.95
L 397.15 223.3
Q 398 221.55 397.4 219.7 396.75 217.9 395.05 217 393.3 216.1 391.45 216.75
M 416.7 219.7
Q 416.1 221.55 416.95 223.3
L 435.8 260.95
Q 436.65 262.7 438.5 263.3 440.35 263.9 442.1 263.05 443.8 262.15 444.45 260.3 445.05 258.5 444.2 256.75
L 425.4 219.1
Q 424.5 217.35 422.65 216.75 420.8 216.1 419.05 217 417.35 217.9 416.7 219.7
M 411.75 202.4
Q 411.75 200.45 410.4 199.05 409 197.7 407.05 197.7 405.1 197.7 403.75 199.05 402.35 200.45 402.35 202.4
L 402.35 258.7
Q 401.35 271.45 387.7 273 385.8 273.2 384.55 274.75 383.35 276.25 383.55 278.2 383.8 280.1 385.3 281.35 386.8 282.55 388.75 282.35 410.6 279.9 411.75 259.15 411.75 259 411.75 258.85
L 411.75 202.4
M 483.75 232
Q 482.35 233.35 482.35 235.3
L 482.35 277.65
Q 482.35 279.6 483.75 281 485.1 282.35 487.05 282.35
L 515.3 282.35
Q 517.25 282.35 518.6 281 520 279.6 520 277.65
L 520 235.3
Q 520 233.35 518.6 232 517.25 230.6 515.3 230.6
L 487.05 230.6
Q 485.1 230.6 483.75 232
M 491.75 240
L 496.45 240 496.45 249.45 491.75 249.45 491.75 240
M 505.85 240
L 510.55 240 510.55 249.45 505.85 249.45 505.85 240
M 491.75 258.85
L 496.45 258.85 496.45 272.95 491.75 272.95 491.75 258.85
M 505.85 272.95
L 505.85 258.85 510.55 258.85 510.55 272.95 505.85 272.95
M 477.65 221.45
Q 477.65 221.2 477.65 220.95 477.6 220.7 477.6 220.4 475.7 201.75 455 197.75 453.1 197.4 451.45 198.5 449.85 199.6 449.5 201.5 449.1 203.4 450.2 205 451.3 206.65 453.2 207 465.6 209.4 467.9 219.6
L 450.8 236.7
Q 449.4 238.05 449.4 240 449.4 241.95 450.8 243.35 452.15 244.75 454.1 244.75 456.05 244.75 457.45 243.35
L 468.2 232.55 468.2 238.05 450.8 255.5
Q 449.4 256.9 449.4 258.85 449.4 260.8 450.8 262.2 452.15 263.55 454.1 263.55 456.05 263.55 457.45 262.2
L 468.2 251.4 468.2 258.45
Q 466.2 270.55 453.25 273.05 451.3 273.4 450.2 275.05 449.1 276.65 449.5 278.55 449.85 280.45 451.45 281.55 453.1 282.65 455 282.3 474.95 278.5 477.6 259.5 477.65 259.15 477.65 258.85
L 477.65 221.45
M 483.75 208.45
Q 482.35 209.85 482.35 211.8 482.35 213.75 483.75 215.15 485.1 216.5 487.05 216.5
L 487.05 221.2
Q 487.05 223.15 488.45 224.55 489.8 225.9 491.75 225.9 493.7 225.9 495.1 224.55 496.45 223.15 496.45 221.2
L 496.45 216.5 505.85 216.5 505.85 221.2
Q 505.85 223.15 507.25 224.55 508.6 225.9 510.55 225.9 512.55 225.9 513.9 224.55 515.3 223.15 515.3 221.2
L 515.3 216.5
Q 517.25 216.5 518.6 215.15 520 213.75 520 211.8 520 209.85 518.6 208.45 517.25 207.1 515.3 207.1
L 515.3 202.4
Q 515.3 200.45 513.9 199.05 512.55 197.7 510.55 197.7 508.6 197.7 507.25 199.05 505.85 200.45 505.85 202.4
L 505.85 207.1 496.45 207.1 496.45 202.4
Q 496.45 200.45 495.1 199.05 493.7 197.7 491.75 197.7 489.8 197.7 488.45 199.05 487.05 200.45 487.05 202.4
L 487.05 207.1
Q 485.1 207.1 483.75 208.45 Z"/>
</g>
</g>
</g>
</g>
</svg>
