
<svg xmlns="http://www.w3.org/2000/svg" version="1.1" xmlns:xlink="http://www.w3.org/1999/xlink" preserveAspectRatio="none" x="0px" y="0px" width="280px" height="60px" viewBox="0 0 280 60">
<defs/>

<g id="___1">
<g transform="matrix( 1.0032196044921875, 0, 0, 1, 0,0) ">
<g>
<g>
<path fill="#FFFFFF" stroke="none" d="
M 58.5 30.05
Q 58.5 17.95 49.95 9.35 41.35 0.75 29.25 0.75 17.15 0.75 8.55 9.35 0 17.95 0 30.05 0 42.15 8.55 50.7 17.15 59.3 29.25 59.3 41.35 59.3 49.95 50.7 58.5 42.15 58.5 30.05
M 47.95 20.65
Q 49.25 20.8 48.95 21.95 46 44.75 21.3 51 20.2 51 19.75 50.55 19.75 50.35 19.65 50.35 19.35 49.7 19.65 49.45 19.9 48.95 20.55 48.7 35.4 42.35 38.5 28.1
L 26 28.1
Q 24.95 28.1 24.55 27.45 24.4 27.45 24.55 26.55 24.55 26.4 24.55 26.15 26 21.8 29.05 20.8 29.75 20.65 30.35 20.65
L 47.95 20.65
M 38.1 8.65
Q 38.1 8.95 38.25 8.95 38.4 9.5 38.25 9.85 37.85 10.5 37.25 10.65 22.35 17 19.35 30.95
L 31.9 30.95
Q 33 31.25 33.3 31.85 33.45 32 33.3 32.75 33.15 32.9 33.15 33.05 31.9 37.7 28.65 38.4 28.2 38.55 27.4 38.55
L 9.9 38.55
Q 8.6 38.4 8.75 37.3 11.9 14.25 36.55 8.25 37.85 8.1 38.1 8.65
M 86.95 44.45
Q 85.85 45.4 85.85 46.75 85.85 48.25 86.95 49.1 87.8 50.15 89.25 50.15 90.6 50.15 91.6 49.1 92.55 48.25 92.55 46.75 92.55 45.4 91.6 44.45 90.6 43.35 89.25 43.35 87.8 43.35 86.95 44.45
M 95 5.75
Q 96 4.8 96 3.25 96 2.05 95 1.05 93.95 0 92.55 0 91.2 0 90.25 1.05
L 76.85 14.5
Q 76.05 15.3 76.05 16.7
L 76.05 33.35 72.45 33.35
Q 71.1 33.35 70.3 34.45 69.2 35.3 69.2 36.8 69.2 38.15 70.3 39.1 71.1 40.05 72.45 40.05
L 76.05 40.05 76.05 56.75
Q 76.05 58.1 76.85 59.2 77.95 60 79.3 60 80.65 60 81.65 59.2 82.55 58.1 82.55 56.75
L 82.55 40.05 96 40.05 96 56.75
Q 96 58.1 96.9 59.2 97.9 60 99.25 60 100.6 60 101.55 59.2 102.5 58.1 102.5 56.75
L 102.5 30.2
Q 102.9 22.15 98.7 17.9 95 13.8 87.2 13.4
L 95 5.75
M 82.55 20.1
L 85.85 20.1
Q 86.15 20.1 86.3 20.1 91.45 20.1 93.95 22.55 96.1 25.2 96 29.95
L 96 33.35 82.55 33.35 82.55 20.1
M 89.25 23.5
Q 87.8 23.5 86.95 24.35 85.85 25.4 85.85 26.8 85.85 28.15 86.95 29.15 87.8 30.05 89.25 30.05 90.6 30.05 91.6 29.15 92.55 28.15 92.55 26.8 92.55 25.4 91.6 24.35 90.6 23.5 89.25 23.5
M 124 32.55
Q 126.05 35.15 125.9 39.9
L 125.9 50.15
Q 125.9 57.95 132.85 59.55 134.1 60 135.85 60 137.05 60.15 138.2 59.2 139.1 58.2 139.25 56.85 139.25 55.5 138.35 54.55 137.5 53.45 136.15 53.45 135.15 53.45 134.45 53.2 132.4 52.5 132.4 50.15
L 132.4 40.2
Q 132.95 32 128.75 27.9 124.65 23.65 116.45 23.5
L 116.35 23.5
Q 116.2 23.5 115.9 23.5
L 109.2 23.5
Q 107.85 23.5 106.9 24.35 105.95 25.4 105.95 26.8
L 105.95 56.75
Q 105.95 58.1 106.9 59.2 107.85 60 109.2 60 110.55 60 111.7 59.2 112.45 58.1 112.45 56.75
L 112.45 30.05 115.9 30.05
Q 116.2 30.05 116.35 30.05 121.35 30.2 124 32.55
M 129.15 20.1
Q 130.5 20.1 131.6 19.15 132.4 18.2 132.4 16.7 132.4 15.3 131.6 14.5 130.5 13.4 129.15 13.4
L 109.2 13.4
Q 107.85 13.4 106.9 14.5 105.95 15.3 105.95 16.7 105.95 18.2 106.9 19.15 107.85 20.1 109.2 20.1
L 129.15 20.1
M 121.5 9.05
Q 122.6 8.2 122.6 6.85 122.6 5.3 121.5 4.35 120.65 3.25 119.3 3.25 117.85 3.25 116.85 4.35 115.9 5.3 115.9 6.85 115.9 8.2 116.85 9.05 117.85 10.15 119.3 10.15 120.65 10.15 121.5 9.05
M 143.65 9.05
Q 144.45 10.15 145.85 10.15 147.2 10.15 148.3 9.05 149.1 8.2 149.1 6.85 149.1 5.3 148.3 4.35 147.2 3.25 145.85 3.25 144.45 3.25 143.65 4.35 142.5 5.3 142.5 6.85 142.5 8.2 143.65 9.05
M 204.95 54.4
Q 203.9 53.45 202.5 53.45
L 159.2 53.45
Q 159.05 53.45 158.65 53.45 157.55 53.45 156.45 53.35 153.2 52.75 151.3 50.85 148.95 48.4 149.1 43.6
L 149.1 23.5
Q 149.1 14.95 141.05 13.55 140.25 13.4 139.4 13.4 138.05 13.4 136.95 14.35 136 15.15 136 16.55 135.85 17.9 136.8 19.05 137.75 19.95 139.1 20.1 139.55 20.1 139.95 20.1 142.65 20.65 142.5 23.5
L 142.5 43.2
Q 142.3 51.5 146.35 55.5 149.95 59.35 156.45 59.85 157.55 60 158.65 60 159.05 60 159.2 60
L 202.5 60
Q 203.9 60 204.95 59.2 205.8 58.1 205.8 56.75 205.8 55.4 204.95 54.4
M 202.5 46.75
L 202.5 23.5
Q 202.5 22.15 201.55 21.1 201.380078125 20.930078125 201.2 20.8 200.320703125 20.1 199.2 20.1
L 191.45 19.95
Q 193.65 18.6 195.8 16.55 198.782421875 13.567578125 201.2 9.9 201.6603515625 9.21953125 202.1 8.5 202.6 7.4 202.5 6.15 202.25 5.05 201.25 4.2 201.225390625 4.170703125 201.2 4.15 200.411328125 3.25 199.2 3.25
L 159.2 3.25
Q 157.85 3.25 156.75 4.35 156.6 4.5 156.45 4.65 155.95 5.6 155.95 6.85 155.95 7.8 156.45 8.8 156.6 8.9 156.75 9.05 157.85 10.15 159.2 10.15
L 192.65 10.15
Q 191.85 10.95 190.9 11.9 186.65 16.3 180.65 16.7 180.1 16.7 179.7 16.85 179.3 16.7 178.85 16.7 173.55 16.7 169.45 13.65 168.45 13 167.1 13.1 165.75 13.4 164.8 14.5 164.15 15.45 164.3 17 164.5 18.35 165.65 19.15 166.35 19.7 167.1 20.1
L 159.2 20.1
Q 157.85 20.1 156.75 21.1 156.6 21.2 156.45 21.3 155.95 22.3 155.95 23.5
L 155.95 46.75
Q 155.95 47.85 156.45 48.8 156.6 48.95 156.75 49.1 157.85 50.15 159.2 50.15 160.55 50.15 161.55 49.1 162.45 48.25 162.45 46.75
L 162.45 26.8 175.9 26.8 175.9 30.05 169.15 30.05
Q 167.8 30.05 166.85 31.05 165.9 32 165.9 33.35 165.9 34.9 166.85 35.8 167.8 36.8 169.15 36.8
L 175.9 36.8 175.9 40.05 169.15 40.05
Q 167.8 40.05 166.85 41.05 165.9 42.1 165.9 43.35 165.9 44.7 166.85 45.8 167.8 46.75 169.15 46.75
L 175.9 46.75
Q 175.9 48.25 176.8 49.1 177.8 50.15 179.15 50.15 180.65 50.15 181.45 49.1 182.55 48.25 182.55 46.75
L 189.1 46.75
Q 190.45 46.75 191.6 45.8 192.4 44.7 192.4 43.35 192.4 42.1 191.6 41.05 190.45 40.05 189.1 40.05
L 182.55 40.05 182.55 36.8 189.1 36.8
Q 190.45 36.8 191.6 35.8 192.4 34.9 192.4 33.35 192.4 32 191.6 31.05 190.45 30.05 189.1 30.05
L 182.55 30.05 182.55 26.8 195.95 26.8 195.95 46.75
Q 195.95 48.25 196.75 49.1 197.85 50.15 199.2 50.15 200.320703125 50.15 201.2 49.4 201.380078125 49.2783203125 201.55 49.1 202.5 48.25 202.5 46.75
M 238.15 45.8
Q 239.1 44.7 239.1 43.35 239.1 42.1 238.15 41.05 237.2 40.05 235.85 40.05 234.45 40.05 233.35 41.05 232.55 42.1 232.55 43.35 232.55 44.7 233.35 45.8 234.45 46.75 235.85 46.75 237.2 46.75 238.15 45.8
M 238.15 14.35
Q 237.2 13.4 235.85 13.4
L 212.6 13.4
Q 211.1 13.4 210.15 14.5 209.05 15.3 209.05 16.7 209.05 18.2 210.15 19.15 211.1 20.1 212.6 20.1
L 228.45 20.1 223.55 25.85
Q 223.4 25.95 223.1 26.1
L 210.05 41.3
Q 209.05 42.25 209.2 43.75 209.2 45.15 210.3 45.9 211.4 46.9 212.75 46.75 214.15 46.75 214.9 45.65
L 222.4 37.05 222.4 56.75
Q 222.4 58.1 223.55 59.2 224.4 60 225.85 60 227.2 60 228.2 59.2 229.15 58.1 229.15 56.75
L 229.15 29.35 238.3 19.05
Q 239.25 17.9 239.1 16.55 239.1 15.15 238.15 14.35
M 228.2 4.35
Q 227.2 3.25 225.85 3.25 224.4 3.25 223.55 4.35 222.4 5.3 222.4 6.85 222.4 8.2 223.55 9.05 224.4 10.15 225.85 10.15 227.2 10.15 228.2 9.05 229.15 8.2 229.15 6.85 229.15 5.3 228.2 4.35
M 253.45 4.35
Q 252.45 5.3 252.45 6.85
L 252.45 26.8 242.5 26.8
Q 241 26.8 240.2 27.75 239.1 28.7 239.1 30.05 239.1 31.45 240.2 32.4 241 33.35 242.5 33.35
L 252.45 33.35 252.45 53.45 235.85 53.45
Q 234.45 53.45 233.5 54.4 232.55 55.4 232.55 56.75 232.55 58.1 233.5 59.2 234.45 60 235.85 60
L 275.85 60
Q 277.2 60 278.2 59.2 279.1 58.1 279.1 56.75 279.1 55.4 278.2 54.4 277.2 53.45 275.85 53.45
L 259.2 53.45 259.2 33.35 269 33.35
Q 270.5 33.35 271.5 32.4 272.55 31.45 272.55 30.05 272.55 28.7 271.5 27.75 270.5 26.8 269 26.8
L 259.2 26.8 259.2 6.85
Q 259.2 5.3 258.1 4.35 257.25 3.25 255.9 3.25 254.4 3.25 253.45 4.35 Z"/>
</g>
</g>
</g>
</g>
</svg>
